/* XPM */
static char * char_xpm[] = {
"32 32 16 1",
" 	c None",
".	c #441131",
"+	c #B04849",
"@	c #5B0C44",
"#	c #F27D02",
"$	c #FFFFFF",
"%	c #F3CF9F",
"&	c #DC835C",
"*	c #41B25C",
"=	c #46ACD2",
"-	c #A8E51F",
";	c #FBF400",
">	c #B7413D",
",	c #4D6DF4",
"'	c #6A47AD",
")	c #B3B3B3",
"                                ",
"              .                 ",
"             ..   ..            ",
"            .+@...+.            ",
"        .  .++@@+++.            ",
"        . .++@@++++.            ",
"       .+.#++@+#+++...          ",
"       .#@#+@+##+#+.@.          ",
"     ...+++++++#++@@@.          ",
"      .+@+++++++++@@@..         ",
"       .@@$%%%%%+@@..@.         ",
"        .&%%%%%%&@@%.@.         ",
"        ..&%%%..&@&%..          ",
"        .*.&&.*$&&%%.           ",
"        .&&%%&%%&&..            ",
"         .&%%%%%&.=-..          ",
"          .&&%%&.=----..        ",
"         .-.....=------%.       ",
"         .-==---------%%%.      ",
"         .===------;=...&&.     ",
"        .&&..-----;==.  .%%.    ",
"     ...&&.  .=--====.   .%%.   ",
"    .%%%%.   .-----==.  .%%&.   ",
"    .%.%&.   .------=.  .%&.    ",
"     ..&.    .>$$>>>>.   ..     ",
"      ..    .,,,,,,,,.          ",
"           .,,'...',,,.         ",
"          .,,'.   .',,'.        ",
"          .'''.    .'''.        ",
"          .,,,.     .,,,.       ",
"        ..)$$).     .)$$).      ",
"        .$$$)).     .$$$).      "};
