/* XPM */
static char * wall_xpm[] = {
"32 32 7 1",
" 	c #908F8F",
".	c #747474",
"+	c #486B2A",
"@	c #7E7E7E",
"#	c #494949",
"$	c #4D722D",
"%	c #727272",
"  ...+ ..@# ..@@  ...+ ..@# ..@@",
" ..@.+..@@$+++## ..@.+..@@$+++##",
"..@@.$$+++$.+.....@@.$$+++$.+...",
"....%%+   ..$.@@....%%+   ..$.@@",
"#$++$$+ ...%++$+#$++$$+ ...%++$+",
" .+ ..+...%%%#.. .+ ..+...%%%#..",
"..$ ..$$+$$###.%..$ ..$$+$$###.%",
"#++..@.+...# ####++..@.+...# ###",
"..+....$...+ .....+....$...+ ...",
".@$+###$$$++..@..@$+###$$$++..@.",
".@@.#....@.$.@@%.@@.#....@.$.@@%",
"...%#..@@@.+..%%...%#..@@@.+..%%",
"#+++$$....$++$$##+++$$....$++$$#",
"   ..++$$$+ ....   ..++$$$+ ....",
" .@@%$...@#..@@. .@@%$...@#..@@.",
"...%%#..@@#........%%#..@@#.....",
"  ...+ ..@# ..@@  ...+ ..@# ..@@",
" ..@.+..@@$+++## ..@.+..@@$+++##",
"..@@.$$+++$.+.....@@.$$+++$.+...",
"....%%+   ..$.@@....%%+   ..$.@@",
"#$++$$+ ...%++$+#$++$$+ ...%++$+",
" .+ ..+...%%%#.. .+ ..+...%%%#..",
"..$ ..$$+$$###.%..$ ..$$+$$###.%",
"#++..@.+...# ####++..@.+...# ###",
"..+....$...+ .....+....$...+ ...",
".@$+###$$$++..@..@$+###$$$++..@.",
".@@.#....@.$.@@%.@@.#....@.$.@@%",
"...%#..@@@.+..%%...%#..@@@.+..%%",
"#+++$$....$++$$##+++$$....$++$$#",
"   ..++$$$+ ....   ..++$$$+ ....",
" .@@%$...@#..@@. .@@%$...@#..@@.",
"...%%#..@@#........%%#..@@#....."};
