/* XPM */
static char * door_between_xpm[] = {
"32 32 11 1",
" 	c #557D55",
".	c #353540",
"+	c #7E674C",
"@	c #EDE4DA",
"#	c #735B42",
"$	c #BFB8B4",
"%	c #604B3D",
"&	c #EEB551",
"*	c #E39347",
"=	c #343540",
"-	c #527853",
"                                ",
"                                ",
"                                ",
"                                ",
"                                ",
"     ......................     ",
"     .+++++++++++++++++@@@.     ",
"     .+++++++++++++++++++@.     ",
"     .####################.     ",
"     .####################.     ",
"     ..##..............##..     ",
"     $.##.....%%%%%%%%.##.$     ",
"     $.##.....%##%##%%.##.$     ",
"      .##.....%##%###%.##.      ",
"      .##........%###%.##.      ",
"      .##......&.%###%.##.      ",
"      .##......*.%###%.##.      ",
"      .##......*.%###%.##.      ",
"      .##........%###%.##.      ",
"      .##.....%##%###%.##.      ",
"      .##.....%##%###%.##.      ",
"      .##.....%%%%###%.##.      ",
"      .##........%%%%%.##.      ",
"      .##.......=...%%.##.      ",
"      .##....     -=...##.      ",
"      .##.            .##.      ",
"                                ",
"                                ",
"                                ",
"                                ",
"                                ",
"                                "};
