/* XPM */
static char * enemy_09_xpm[] = {
"32 32 17 1",
" 	c #557D55",
".	c #000000",
"+	c #249013",
"@	c #441131",
"#	c #B04849",
"$	c #5B0C44",
"%	c #F27D02",
"&	c #FFFFFF",
"*	c #F3CF9F",
"=	c #DC835C",
"-	c #EF0100",
";	c #500062",
">	c #FBF400",
",	c #B7413D",
"'	c #4D6DF4",
")	c #6A47AD",
"!	c #B3B3B3",
"                                ",
" .............................. ",
" .++++++++++++++++++++++++++... ",
" .............................. ",
"        @  @##$$###@            ",
"        @ @##$$####@            ",
"       @#@%##$#%###@@@          ",
"       @%$%#$#%%#%#@$@          ",
"     @@@#######%##$$$@          ",
"      @#$#########$$$@@         ",
"       @$$&*****#$$@@$@         ",
"        @=******=$$*@$@         ",
"        @@=***@@=$=*@@          ",
"        @-@==@-&==**@           ",
"        @==**=**==@@            ",
"         @=*****=@;-@@          ",
"          @==**=@;----@@        ",
"         @-@@@@@;------*@       ",
"         @-;;---------***@      ",
"         @;;;------>;@@@==@     ",
"        @==@@----->;;@  @**@    ",
"     @@@==@  @;--;;;;@   @**@   ",
"    @****@   @-----;;@  @**=@   ",
"    @*@*=@   @------;@  @*=@    ",
"     @@=@    @,&&,,,,@   @@     ",
"      @@    @''''''''@          ",
"           @'')@@@)'''@         ",
"          @'')@   @)'')@        ",
"          @)))@    @)))@        ",
"          @'''@     @'''@       ",
"        @@!&&!@     @!&&!@      ",
"        @&&&!!@     @&&&!@      "};
