/* XPM */
static char * enemy_00_xpm[] = {
"32 32 4 1",
" 	c #557D55",
".	c #6F6F6F",
"+	c #484848",
"@	c #446350",
"                                ",
"                                ",
"                                ",
"                                ",
"                                ",
"          ............          ",
"          .....++.....          ",
"          .....++.....          ",
"          ...++++++...          ",
"          ...++++++...          ",
"          .....++.....          ",
"          .....++.....          ",
"          .....++.....          ",
"          .....++.....          ",
"          .....++.....          ",
"          ............          ",
"          ............          ",
"          @..........@          ",
"          @..........@          ",
"          @+++.++.+++@          ",
"          @+.+.++.+.+@          ",
"          @+++.++.+++@          ",
"          @++..++.+..@          ",
"          @+.+.++.+..@          ",
"          @..........@          ",
"          @..........@          ",
"          @@@@@@@@@@@@          ",
"                                ",
"                                ",
"                                ",
"                                ",
"                                "};
