/* XPM */
static char * health_07_xpm[] = {
"30 3 2 1",
" 	c #000000",
".	c #BBA627",
"                              ",
" ....................         ",
"                              "};
