/* XPM */
static char * health_02_xpm[] = {
"30 3 2 1",
" 	c #000000",
".	c #E62227",
"                              ",
" .....                        ",
"                              "};
