/* XPM */
static char * health_04_xpm[] = {
"30 3 2 1",
" 	c #000000",
".	c #E65F27",
"                              ",
" ...........                  ",
"                              "};
