/* XPM */
static char * health_1000_xpm[] = {
"30 3 11 1",
" 	c #000000",
".	c #E60027",
"+	c #E62227",
"@	c #E64427",
"#	c #E65F27",
"$	c #E69327",
"%	c #E6A627",
"&	c #BBA627",
"*	c #90A627",
"=	c #249013",
"-	c #247813",
"                              ",
" ..+++@@@###$$$%%%&&&***===-- ",
"                              "};
