/* XPM */
static char * health_80_xpm[] = {
"30 3 2 1",
" 	c #000000",
".	c #538413",
"                              ",
" .......................      ",
"                              "};
