/* XPM */
static char * health_05_xpm[] = {
"30 3 2 1",
" 	c #000000",
".	c #E69327",
"                              ",
" ..............               ",
"                              "};
