/* XPM */
static char * health_100_xpm[] = {
"30 3 2 1",
" 	c #000000",
".	c #249513",
"                              ",
" ............................ ",
"                              "};
