/* XPM */
static char * health_06_xpm[] = {
"30 3 2 1",
" 	c #000000",
".	c #E6A627",
"                              ",
" .................            ",
"                              "};
