/* XPM */
static char * health_03_xpm[] = {
"30 3 2 1",
" 	c #000000",
".	c #E64427",
"                              ",
" ........                     ",
"                              "};
