/* XPM */
static char * health_90_xpm[] = {
"30 3 2 1",
" 	c #000000",
".	c #247813",
"                              ",
" ..........................   ",
"                              "};
