/* XPM */
static char * key_xpm[] = {
"32 32 5 1",
" 	c #557D55",
".	c #FFD800",
"+	c #FF0000",
"@	c #0000FF",
"#	c #446350",
"                                ",
"                                ",
"                                ",
"                                ",
"                                ",
"                                ",
"            ........            ",
"            ........            ",
"            ..    ..            ",
"            ..    ..            ",
"            ..    ..            ",
"            ..    ..            ",
"            ........            ",
"            ........            ",
"              ....              ",
"              .+@.              ",
"              .@+.              ",
"              ....              ",
"            ......              ",
"            ......              ",
"              ....              ",
"              ....              ",
"          ##......####          ",
"          ##......####          ",
"        ################        ",
"        ################        ",
"          ############          ",
"          ############          ",
"                                ",
"                                ",
"                                ",
"                                "};
