/* XPM */
static char * key_xpm[] = {
"32 32 3 1",
" 	c #557D55",
".	c #FFD800",
"+	c #446350",
"                                ",
"                                ",
"                                ",
"                                ",
"                                ",
"                                ",
"            ........            ",
"            ........            ",
"            ..    ..            ",
"            ..    ..            ",
"            ..    ..            ",
"            ..    ..            ",
"            ........            ",
"            ........            ",
"              ....              ",
"              ....              ",
"              ....              ",
"              ....              ",
"            ......              ",
"            ......              ",
"              ....              ",
"              ....              ",
"          ++......++++          ",
"          ++......++++          ",
"        ++++++++++++++++        ",
"        ++++++++++++++++        ",
"          ++++++++++++          ",
"          ++++++++++++          ",
"                                ",
"                                ",
"                                ",
"                                "};
