/* XPM */
static char * loose_xpm[] = {
"39 11 3 1",
" 	c #FF0000",
".	c #000000",
"+	c #600101",
"  ........  ......  .....     ..      .",
"  +......    ....    ...      +.      +",
"  +.....      ..      ..  +++++.  +++++",
"  +.....  ++  +.  ++  +.  +.....  +....",
"  +.....  +.  +.  +.  +.     ...    ...",
"  +.....  +.  +.  +.  +..     ..    +..",
"  +.....  +.  +.  +.  +.....  +.  +++..",
"  +.....      +.      +.....  +.  +....",
"      ...    ++..    ++.      +.      .",
"      +...  ++....  ++..     ++.      +",
".++++++....++......++....+++++...++++++"};
