/* XPM */
static char * loose_xpm[] = {
"40 32 3 1",
" 	c #000000",
".	c #FF0000",
"+	c #600101",
"                                        ",
"                                        ",
"                                        ",
"                                        ",
"                                        ",
"                                        ",
"                                        ",
"                                        ",
"                                        ",
"                                        ",
" ..        ..      ..     .....  ...... ",
" ..+      ....    ....   ......+ ......+",
" ..+     ......  ......  ..+++++ ..+++++",
" ..+     ..++..+ ..++..+ ..+     ..+    ",
" ..+     ..+ ..+ ..+ ..+ .....   ....   ",
" ..+     ..+ ..+ ..+ ..+  .....  ....+  ",
" ..+     ..+ ..+ ..+ ..+     ..+ ..+++  ",
" ..+     ......+ ......+     ..+ ..+    ",
" ......   ....++  ....++ ......+ ...... ",
" ......+   ..++    ..++  .....++ ......+",
"  ++++++    ++      ++    +++++   ++++++",
"                                        ",
"                                        ",
"                                        ",
"                                        ",
"                                        ",
"                                        ",
"                                        ",
"                                        ",
"                                        ",
"                                        ",
"                                        "};
