/* XPM */
static char * p_on_g_xpm[] = {
"32 32 19 1",
" 	c #557D55",
".	c #441131",
"+	c #B04849",
"@	c #5B0C44",
"#	c #6F6F6F",
"$	c #F27D02",
"%	c #FFFFFF",
"&	c #F3CF9F",
"*	c #DC835C",
"=	c #41B25C",
"-	c #46ACD2",
";	c #A8E51F",
">	c #FBF400",
",	c #484848",
"'	c #446350",
")	c #B7413D",
"!	c #4D6DF4",
"~	c #6A47AD",
"{	c #B3B3B3",
"                                ",
"              .                 ",
"             ..   ..            ",
"            .+@...+.            ",
"        .  .++@@+++.            ",
"        . .++@@++++.##          ",
"       .+.$++@+$+++...          ",
"       .$@$+@+$$+$+.@.          ",
"     ...+++++++$++@@@.          ",
"      .+@+++++++++@@@..         ",
"       .@@%&&&&&+@@..@.         ",
"        .*&&&&&&*@@&.@.         ",
"        ..*&&&..*@*&..          ",
"        .=.**.=%**&&.#          ",
"        .**&&*&&**..##          ",
"         .*&&&&&*.-;..          ",
"          .**&&*.-;;;;..        ",
"         .;.....-;;;;;;&.       ",
"         .;--;;;;;;;;;&&&.      ",
"         .---;;;;;;>-...**.     ",
"        .**..;;;;;>--.  .&&.    ",
"     ...**.,,.-;;----.   .&&.   ",
"    .&&&&.',,.;;;;;--.  .&&*.   ",
"    .&.&*.',#.;;;;;;-.  .&*.    ",
"     ..*. '##.)%%)))).   ..     ",
"      ..  '#.!!!!!!!!.          ",
"          '.!!~...~!!!.         ",
"          .!!~.   .~!!~.        ",
"          .~~~.    .~~~.        ",
"          .!!!.     .!!!.       ",
"        ..{%%{.     .{%%{.      ",
"        .%%%{{.     .%%%{.      "};
