/* XPM */
static char * wall_2_ll_xpm[] = {
"32 32 6 1",
" 	c #557D55",
".	c #353540",
"+	c #EDE4DA",
"@	c #7E674C",
"#	c #446350",
"$	c #735B42",
"                                ",
"                                ",
"                                ",
"                                ",
"                                ",
"                                ",
"                                ",
"                                ",
"                                ",
"                                ",
"                                ",
"                                ",
"...          ......             ",
"++............@+++.             ",
"@+@@@@@@@@@@@@@@@+.             ",
"@@@@@@@@@@@@@@@@@@.#            ",
"@@$$$$$$$$$$$$@@@@.#            ",
"@$$$$$$$$$$$$$$@@$.#            ",
"@$............$@@$.#            ",
"@$.#        #.$@@$.#            ",
"####        ##.@@.##            ",
"              .@@.              ",
"              .@@.              ",
"              .@@.              ",
"              .@@.              ",
"              .@@.              ",
"              .@@.              ",
"              .@@.              ",
"             ..@@..             ",
"             .@+++.             ",
"             .@@@+.             ",
"            #.@@@@.#            "};
