/* XPM */
static char * wall_3_e_xpm[] = {
"32 32 6 1",
" 	c #557D55",
".	c #446350",
"+	c #353540",
"@	c #7E674C",
"#	c #735B42",
"$	c #EDE4DA",
"            .+@@@@+.            ",
"            .+#@@#+.            ",
"            .+#@@#+.            ",
"            .+#@@#+.            ",
"            ..+@@+..            ",
"              +@@+              ",
"              +@@+              ",
"              +@@+              ",
"              +@@+              ",
"              +@@+              ",
"              +@@+              ",
"              +@@+              ",
"+++          ++@@++             ",
"$$++++++++++++@$$$+             ",
"@$@@@@@@@@@@@@@@@$+             ",
"@@@@@@@@@@@@@@@@@@+.            ",
"@@############@@@@+.            ",
"@##############@@#+.            ",
"@#++++++++++++#@@#+.            ",
"@#+.        .+#@@#+.            ",
"....        ..+@@+..            ",
"              +@@+              ",
"              +@@+              ",
"              +@@+              ",
"              +@@+              ",
"              +@@+              ",
"              +@@+              ",
"              +@@+              ",
"             ++@@++             ",
"             +@$$$+             ",
"             +@@@$+             ",
"            .+@@@@+.            "};
