/* XPM */
static char * win_xpm[] = {
"23 11 3 1",
" 	c #00FF00",
".	c #000000",
"+	c #008400",
"  . .  .      ..  ..  .",
"  + +  +      +.  +.  +",
"  + +  +.+  +++.   .  +",
"  + +  +..  +...   +  +",
"  + +  +..  +...      +",
"  + +  +..  +...      +",
"  + +  +..  +...  +   +",
"       +..  +...  +   +",
"       +      ..  +.  +",
".  +  ++      +.  +.  +",
"..++.++..++++++..++..++"};
