/* XPM */
static char * key_xpm[] = {
"16 16 3 1",
" 	c #557D55",
".	c #FFD800",
"+	c #3D643E",
"                ",
"                ",
"                ",
"      ....      ",
"      .  .      ",
"      .  .      ",
"      ....      ",
"       ..       ",
"       ..       ",
"      ...       ",
"       ..       ",
"     +...++     ",
"    ++++++++    ",
"     ++++++     ",
"                ",
"                "};
