/* XPM */
static char * player_xpm[] = {
"32 32 10 1",
" 	c #557D55",
".	c #000000",
"+	c #EF0100",
"@	c #000062",
"#	c #EDAB7A",
"$	c #D49362",
"%	c #CDC5BE",
"&	c #EEE6DE",
"*	c #4A4A4A",
"=	c #446350",
"            ........            ",
"            ........            ",
"            ........            ",
"            ........            ",
"        ++++@@@@####            ",
"        ++++@@@@####            ",
"        ++++@@@@####            ",
"        ++++@@@@####            ",
"        $$$$%%%%&&&&$$$$        ",
"        $$$$%%%%&&&&$$$$        ",
"        $$$$%%%%&&&&$$$$        ",
"        $$$$%%%%&&&&$$$$        ",
"        $$$$%%%%&&&&$$$$        ",
"        $$$$%%%%&&&&$$$$        ",
"        $$$$%%%%&&&&$$$$        ",
"        $$$$%%%%&&&&$$$$        ",
"        ....********            ",
"        ....********            ",
"        ....********            ",
"        ....********            ",
"            %%%%&&&&            ",
"            %%%%&&&&            ",
"            %%%%&&&&            ",
"            %%%%&&&&            ",
"            %%%%&&&&            ",
"            %%%%&&&&            ",
"            %%%%&&&&            ",
"            %%%%&&&&            ",
"      ======$$$$$$$$======      ",
"      ======$$$$$$$$======      ",
"    ========$$$$$$$$========    ",
"    ========$$$$$$$$========    "};
