/* XPM */
static char * door_closed_xpm[] = {
"32 32 9 1",
" 	c #557D55",
".	c #353540",
"+	c #7E674C",
"@	c #EDE4DA",
"#	c #735B42",
"$	c #BFB8B4",
"%	c #604B3D",
"&	c #EEB551",
"*	c #E39347",
"                                ",
"                                ",
"                                ",
"                                ",
"                                ",
"     ......................     ",
"     .+++++++++++++++++@@@.     ",
"     .+++++++++++++++++++@.     ",
"     .####################.     ",
"     .####################.     ",
"     ..##..............##..     ",
"     $.##.%%%%%%%%%%%%.##.$     ",
"     $.##.%%%%%%%%%%%%.##.$     ",
"      .##.%##%####%##%.##.      ",
"      .##.%##%####%##%.##.      ",
"      .##.%....###%##%.##.      ",
"      .##.%.&&.###%##%.##.      ",
"      .##.%.**.###%##%.##.      ",
"      .##.%.**.###%##%.##.      ",
"      .##.%....###%##%.##.      ",
"      .##.%%%%%###%##%.##.      ",
"      .##.%##%####%##%.##.      ",
"      .##.%##%####%##%.##.      ",
"      .##.%%%%%%%%%%%%.##.      ",
"      .##..............##.      ",
"      .##.            .##.      ",
"                                ",
"                                ",
"                                ",
"                                ",
"                                ",
"                                "};
