/* XPM */
static char * wall_xpm[] = {
"32 32 6 1",
" 	c #557D55",
".	c #353540",
"+	c #7E674C",
"@	c #EDE4DA",
"#	c #446350",
"$	c #735B42",
"                                ",
"                                ",
"                                ",
"                                ",
"                                ",
"                                ",
"          ............          ",
"          ............          ",
"          ..++@@@@@@..          ",
"          ..++@@@@@@..          ",
"          ..++++++@@..          ",
"          ..++++++@@..          ",
"        ##..++++++++..##        ",
"        ##..++++++++..##        ",
"        ##..++++++++..##        ",
"        ##..++++++++..##        ",
"        ##..$$$$$$$$..##        ",
"        ##..$$$$$$$$..##        ",
"        ##..$$$$$$$$..##        ",
"        ##..$$$$$$$$..##        ",
"        ##..$$$$$$$$..##        ",
"        ##..$$$$$$$$..##        ",
"        ################        ",
"        ################        ",
"                                ",
"                                ",
"                                ",
"                                ",
"                                ",
"                                ",
"                                ",
"                                "};
